<?xml version="1.0" encoding="UTF-8" standalone="no"?>
<!DOCTYPE svg PUBLIC "-//W3C//DTD SVG 1.1//EN"
 "http://www.w3.org/Graphics/SVG/1.1/DTD/svg11.dtd">
<!-- Generated by graphviz version 2.34.0 (20140110.0949)
 -->
<!-- Title: GradleSetup Pages: 1 -->
<svg width="2546pt" height="1077pt"
 viewBox="0.00 0.00 2546.00 1077.00" xmlns="http://www.w3.org/2000/svg" xmlns:xlink="http://www.w3.org/1999/xlink">
<g id="graph0" class="graph" transform="scale(1 1) rotate(0) translate(4 1073)">
<title>GradleSetup</title>
<polygon fill="white" stroke="white" points="-4,4 -4,-1073 2542,-1073 2542,4 -4,4"/>
<text text-anchor="middle" x="61" y="-1053.8" font-family="Times,serif" font-size="14.00">Gradle Build Setup</text>
<g id="clust1" class="cluster"><title>cluster1</title>
<polygon fill="lightgrey" stroke="black" points="1342,-443 1342,-1038 2031,-1038 2031,-443 1342,-443"/>
<text text-anchor="middle" x="1382" y="-450.8" font-family="Times,serif" font-size="14.00">Java Plugin</text>
</g>
<g id="clust2" class="cluster"><title>cluster11</title>
</g>
<g id="clust3" class="cluster"><title>cluster12</title>
</g>
<g id="clust4" class="cluster"><title>cluster13</title>
</g>
<g id="clust5" class="cluster"><title>cluster2</title>
<polygon fill="lightgrey" stroke="black" points="826,-590 826,-947 1334,-947 1334,-590 826,-590"/>
<text text-anchor="middle" x="869" y="-597.8" font-family="Times,serif" font-size="14.00">Bnd Projects</text>
</g>
<g id="clust6" class="cluster"><title>cluster21</title>
</g>
<g id="clust7" class="cluster"><title>cluster22</title>
</g>
<g id="clust8" class="cluster"><title>cluster23</title>
</g>
<g id="clust9" class="cluster"><title>cluster100</title>
<polygon fill="lightgrey" stroke="black" points="913,-864 913,-939 1039,-939 1039,-864 913,-864"/>
<text text-anchor="middle" x="975.5" y="-923.8" font-family="Times,serif" font-size="14.00">Class Cycle Checks</text>
</g>
<g id="clust10" class="cluster"><title>cluster3</title>
<polygon fill="lightgrey" stroke="black" points="2039,-955 2039,-1030 2124,-1030 2124,-955 2039,-955"/>
<text text-anchor="middle" x="2081.5" y="-962.8" font-family="Times,serif" font-size="14.00">Root Project</text>
</g>
<g id="clust11" class="cluster"><title>cluster4</title>
<polygon fill="lightgrey" stroke="black" points="2039,-590 2039,-753 2277,-753 2277,-590 2039,-590"/>
<text text-anchor="middle" x="2083" y="-597.8" font-family="Times,serif" font-size="14.00">Java Projects</text>
</g>
<g id="clust12" class="cluster"><title>cluster41</title>
</g>
<g id="clust13" class="cluster"><title>cluster42</title>
</g>
<g id="clust14" class="cluster"><title>cluster5</title>
<polygon fill="lightgrey" stroke="black" points="2132,-761 2132,-1038 2530,-1038 2530,-761 2132,-761"/>
<text text-anchor="middle" x="2172.5" y="-768.8" font-family="Times,serif" font-size="14.00">All Projects</text>
</g>
<g id="clust15" class="cluster"><title>cluster21</title>
</g>
<g id="clust16" class="cluster"><title>cluster22</title>
</g>
<g id="clust17" class="cluster"><title>cluster7</title>
<polygon fill="lightgrey" stroke="black" points="8,-8 8,-745 818,-745 818,-8 8,-8"/>
<text text-anchor="middle" x="52.5" y="-15.8" font-family="Times,serif" font-size="14.00">Build Project</text>
</g>
<!-- compileJava -->
<g id="node1" class="node"><title>compileJava</title>
<polygon fill="lightcyan" stroke="black" points="1507.25,-1022 1422.75,-1022 1422.75,-986 1507.25,-986 1507.25,-1022"/>
<text text-anchor="middle" x="1465" y="-1000.3" font-family="Times,serif" font-size="14.00">compileJava</text>
</g>
<!-- classes -->
<g id="node3" class="node"><title>classes</title>
<polygon fill="lightcyan" stroke="black" points="1627,-908 1573,-908 1573,-872 1627,-872 1627,-908"/>
<text text-anchor="middle" x="1600" y="-886.3" font-family="Times,serif" font-size="14.00">classes</text>
</g>
<!-- compileJava&#45;&gt;classes -->
<g id="edge1" class="edge"><title>compileJava&#45;&gt;classes</title>
<path fill="none" stroke="black" d="M1482.52,-985.651C1492.17,-976.315 1504.5,-964.749 1516,-955 1532.64,-940.897 1551.95,-926.08 1567.86,-914.259"/>
<polygon fill="black" stroke="black" points="1570.35,-916.777 1576.31,-908.023 1566.19,-911.144 1570.35,-916.777"/>
</g>
<!-- processResources -->
<g id="node2" class="node"><title>processResources</title>
<polygon fill="lightcyan" stroke="black" points="1638.25,-1022 1525.75,-1022 1525.75,-986 1638.25,-986 1638.25,-1022"/>
<text text-anchor="middle" x="1582" y="-1000.3" font-family="Times,serif" font-size="14.00">processResources</text>
</g>
<!-- processResources&#45;&gt;classes -->
<g id="edge2" class="edge"><title>processResources&#45;&gt;classes</title>
<path fill="none" stroke="black" d="M1584.73,-985.99C1587.63,-967.981 1592.24,-939.293 1595.64,-918.152"/>
<polygon fill="black" stroke="black" points="1599.11,-918.599 1597.24,-908.17 1592.2,-917.488 1599.11,-918.599"/>
</g>
<!-- jar -->
<g id="node4" class="node"><title>jar</title>
<polygon fill="lightcyan" stroke="black" points="1615,-836 1561,-836 1561,-800 1615,-800 1615,-836"/>
<text text-anchor="middle" x="1588" y="-814.3" font-family="Times,serif" font-size="14.00">jar</text>
</g>
<!-- classes&#45;&gt;jar -->
<g id="edge6" class="edge"><title>classes&#45;&gt;jar</title>
<path fill="none" stroke="black" d="M1597.03,-871.697C1595.71,-863.983 1594.12,-854.712 1592.65,-846.112"/>
<polygon fill="black" stroke="black" points="1596.07,-845.369 1590.93,-836.104 1589.17,-846.552 1596.07,-845.369"/>
</g>
<!-- compileTestJava -->
<g id="node5" class="node"><title>compileTestJava</title>
<polygon fill="lightcyan" stroke="black" points="1925,-836 1817,-836 1817,-800 1925,-800 1925,-836"/>
<text text-anchor="middle" x="1871" y="-814.3" font-family="Times,serif" font-size="14.00">compileTestJava</text>
</g>
<!-- classes&#45;&gt;compileTestJava -->
<g id="edge5" class="edge"><title>classes&#45;&gt;compileTestJava</title>
<path fill="none" stroke="black" d="M1627.29,-884.576C1667.39,-877.743 1744.38,-863.362 1808,-844 1812.36,-842.673 1816.84,-841.175 1821.31,-839.589"/>
<polygon fill="black" stroke="black" points="1822.85,-842.752 1831.02,-836.006 1820.43,-836.185 1822.85,-842.752"/>
</g>
<!-- test -->
<g id="node8" class="node"><title>test</title>
<polygon fill="lightcyan" stroke="black" points="1898,-665 1844,-665 1844,-629 1898,-629 1898,-665"/>
<text text-anchor="middle" x="1871" y="-643.3" font-family="Times,serif" font-size="14.00">test</text>
</g>
<!-- classes&#45;&gt;test -->
<g id="edge4" class="edge"><title>classes&#45;&gt;test</title>
<path fill="none" stroke="black" d="M1627.12,-889.687C1699.43,-890.881 1894.04,-889.7 1934,-844 1956.21,-818.597 1934.74,-722.298 1918,-693 1913.65,-685.386 1907.62,-678.252 1901.32,-672.007"/>
<polygon fill="black" stroke="black" points="1903.6,-669.35 1893.89,-665.109 1898.84,-674.479 1903.6,-669.35"/>
</g>
<!-- javadoc -->
<g id="node13" class="node"><title>javadoc</title>
<polygon fill="lightcyan" stroke="black" points="2022.25,-836 1963.75,-836 1963.75,-800 2022.25,-800 2022.25,-836"/>
<text text-anchor="middle" x="1993" y="-814.3" font-family="Times,serif" font-size="14.00">javadoc</text>
</g>
<!-- classes&#45;&gt;javadoc -->
<g id="edge3" class="edge"><title>classes&#45;&gt;javadoc</title>
<path fill="none" stroke="black" d="M1627.05,-889.031C1686.76,-888.348 1833.69,-882.527 1949,-844 1951.91,-843.029 1954.84,-841.859 1957.73,-840.561"/>
<polygon fill="black" stroke="black" points="1959.38,-843.651 1966.78,-836.073 1956.27,-837.38 1959.38,-843.651"/>
</g>
<!-- bundle -->
<g id="node15" class="node"><title>bundle</title>
<polygon fill="cyan" stroke="black" points="920,-836 866,-836 866,-800 920,-800 920,-836"/>
<text text-anchor="middle" x="893" y="-814.3" font-family="Times,serif" font-size="14.00">bundle</text>
</g>
<!-- classes&#45;&gt;bundle -->
<g id="edge17" class="edge"><title>classes&#45;&gt;bundle</title>
<path fill="none" stroke="black" d="M1572.72,-886.299C1463.36,-875.471 1056.56,-835.194 930.494,-822.712"/>
<polygon fill="black" stroke="black" points="930.497,-819.196 920.201,-821.693 929.807,-826.161 930.497,-819.196"/>
</g>
<!-- checkClassCycle -->
<g id="node22" class="node"><title>checkClassCycle</title>
<polygon fill="cyan" stroke="black" points="1030.25,-908 921.75,-908 921.75,-872 1030.25,-872 1030.25,-908"/>
<text text-anchor="middle" x="976" y="-886.3" font-family="Times,serif" font-size="14.00">checkClassCycle</text>
</g>
<!-- classes&#45;&gt;checkClassCycle -->
<g id="edge15" class="edge"><title>classes&#45;&gt;checkClassCycle</title>
<path fill="none" stroke="black" d="M1572.75,-890C1395.37,-890 1217.98,-890 1040.6,-890"/>
<polygon fill="black" stroke="black" points="1040.54,-886.5 1030.54,-890 1040.54,-893.5 1040.54,-886.5"/>
</g>
<!-- findbugsMain -->
<g id="node27" class="node"><title>findbugsMain</title>
<polygon fill="cyan" stroke="black" points="2148.25,-737 2055.75,-737 2055.75,-701 2148.25,-701 2148.25,-737"/>
<text text-anchor="middle" x="2102" y="-715.3" font-family="Times,serif" font-size="14.00">findbugsMain</text>
</g>
<!-- classes&#45;&gt;findbugsMain -->
<g id="edge27" class="edge"><title>classes&#45;&gt;findbugsMain</title>
<path fill="none" stroke="black" d="M1627.01,-889.421C1711.28,-890.248 1967.78,-888.936 2035,-844 2068.7,-821.473 2086.84,-776.178 2095.45,-747.013"/>
<polygon fill="black" stroke="black" points="2098.91,-747.641 2098.2,-737.07 2092.16,-745.775 2098.91,-747.641"/>
</g>
<!-- uploadArchives -->
<g id="node10" class="node"><title>uploadArchives</title>
<polygon fill="lightcyan" stroke="black" points="1639,-737 1537,-737 1537,-701 1639,-701 1639,-737"/>
<text text-anchor="middle" x="1588" y="-715.3" font-family="Times,serif" font-size="14.00">uploadArchives</text>
</g>
<!-- jar&#45;&gt;uploadArchives -->
<g id="edge9" class="edge"><title>jar&#45;&gt;uploadArchives</title>
<path fill="none" stroke="black" d="M1588,-799.658C1588,-785.175 1588,-764.263 1588,-747.499"/>
<polygon fill="black" stroke="black" points="1591.5,-747.191 1588,-737.192 1584.5,-747.192 1591.5,-747.191"/>
</g>
<!-- assemble -->
<g id="node11" class="node"><title>assemble</title>
<polygon fill="lightcyan" stroke="black" points="1518.25,-737 1451.75,-737 1451.75,-701 1518.25,-701 1518.25,-737"/>
<text text-anchor="middle" x="1485" y="-715.3" font-family="Times,serif" font-size="14.00">assemble</text>
</g>
<!-- jar&#45;&gt;assemble -->
<g id="edge10" class="edge"><title>jar&#45;&gt;assemble</title>
<path fill="none" stroke="black" d="M1569.59,-799.658C1553.18,-784.209 1529.01,-761.446 1510.7,-744.205"/>
<polygon fill="black" stroke="black" points="1512.93,-741.499 1503.25,-737.192 1508.14,-746.595 1512.93,-741.499"/>
</g>
<!-- testClasses -->
<g id="node7" class="node"><title>testClasses</title>
<polygon fill="lightcyan" stroke="black" points="1909,-737 1833,-737 1833,-701 1909,-701 1909,-737"/>
<text text-anchor="middle" x="1871" y="-715.3" font-family="Times,serif" font-size="14.00">testClasses</text>
</g>
<!-- compileTestJava&#45;&gt;testClasses -->
<g id="edge7" class="edge"><title>compileTestJava&#45;&gt;testClasses</title>
<path fill="none" stroke="black" d="M1871,-799.658C1871,-785.175 1871,-764.263 1871,-747.499"/>
<polygon fill="black" stroke="black" points="1874.5,-747.191 1871,-737.192 1867.5,-747.192 1874.5,-747.191"/>
</g>
<!-- processTestResources -->
<g id="node6" class="node"><title>processTestResources</title>
<polygon fill="lightcyan" stroke="black" points="1799,-836 1663,-836 1663,-800 1799,-800 1799,-836"/>
<text text-anchor="middle" x="1731" y="-814.3" font-family="Times,serif" font-size="14.00">processTestResources</text>
</g>
<!-- processTestResources&#45;&gt;testClasses -->
<g id="edge8" class="edge"><title>processTestResources&#45;&gt;testClasses</title>
<path fill="none" stroke="black" d="M1754.03,-799.775C1769.21,-788.534 1789.62,-773.653 1808,-761 1816.88,-754.888 1826.59,-748.452 1835.67,-742.537"/>
<polygon fill="black" stroke="black" points="1837.64,-745.428 1844.13,-737.053 1833.83,-739.554 1837.64,-745.428"/>
</g>
<!-- testClasses&#45;&gt;test -->
<g id="edge11" class="edge"><title>testClasses&#45;&gt;test</title>
<path fill="none" stroke="black" d="M1871,-700.697C1871,-692.983 1871,-683.712 1871,-675.112"/>
<polygon fill="black" stroke="black" points="1874.5,-675.104 1871,-665.104 1867.5,-675.104 1874.5,-675.104"/>
</g>
<!-- findbugsTest -->
<g id="node25" class="node"><title>findbugsTest</title>
<polygon fill="cyan" stroke="black" points="2260.25,-737 2173.75,-737 2173.75,-701 2260.25,-701 2260.25,-737"/>
<text text-anchor="middle" x="2217" y="-715.3" font-family="Times,serif" font-size="14.00">findbugsTest</text>
</g>
<!-- testClasses&#45;&gt;findbugsTest -->
<g id="edge28" class="edge"><title>testClasses&#45;&gt;findbugsTest</title>
<path fill="none" stroke="black" d="M1909.12,-729.407C1945.5,-738.764 2002.02,-751.81 2052,-757 2074.1,-759.295 2130.26,-761.613 2152,-757 2163.87,-754.481 2175.67,-748.794 2185.9,-742.567"/>
<polygon fill="black" stroke="black" points="2187.97,-745.401 2194.45,-737.022 2184.15,-739.529 2187.97,-745.401"/>
</g>
<!-- check -->
<g id="node9" class="node"><title>check</title>
<polygon fill="lightcyan" stroke="black" points="1898,-582 1844,-582 1844,-546 1898,-546 1898,-582"/>
<text text-anchor="middle" x="1871" y="-560.3" font-family="Times,serif" font-size="14.00">check</text>
</g>
<!-- test&#45;&gt;check -->
<g id="edge13" class="edge"><title>test&#45;&gt;check</title>
<path fill="none" stroke="black" d="M1871,-628.822C1871,-618.19 1871,-604.306 1871,-592.204"/>
<polygon fill="black" stroke="black" points="1874.5,-592.153 1871,-582.153 1867.5,-592.153 1874.5,-592.153"/>
</g>
<!-- build -->
<g id="node12" class="node"><title>build</title>
<polygon fill="lightcyan" stroke="black" points="1785,-510 1731,-510 1731,-474 1785,-474 1785,-510"/>
<text text-anchor="middle" x="1758" y="-488.3" font-family="Times,serif" font-size="14.00">build</text>
</g>
<!-- check&#45;&gt;build -->
<g id="edge14" class="edge"><title>check&#45;&gt;build</title>
<path fill="none" stroke="black" d="M1850.71,-545.799C1847.22,-543.083 1843.56,-540.386 1840,-538 1825.61,-528.361 1808.98,-518.944 1794.48,-511.237"/>
<polygon fill="black" stroke="black" points="1795.78,-507.967 1785.29,-506.433 1792.53,-514.17 1795.78,-507.967"/>
</g>
<!-- assemble&#45;&gt;build -->
<g id="edge12" class="edge"><title>assemble&#45;&gt;build</title>
<path fill="none" stroke="black" d="M1496.84,-700.86C1521.73,-665.95 1582.8,-585.866 1651,-538 1672.46,-522.941 1699.73,-511.567 1721.38,-504.021"/>
<polygon fill="black" stroke="black" points="1722.52,-507.329 1730.88,-500.824 1720.29,-500.695 1722.52,-507.329"/>
</g>
<!-- cleanJava -->
<g id="node14" class="node"><title>cleanJava</title>
<polygon fill="lightcyan" stroke="black" points="1404,-1022 1350,-1022 1350,-986 1404,-986 1404,-1022"/>
<text text-anchor="middle" x="1377" y="-1000.3" font-family="Times,serif" font-size="14.00">clean</text>
</g>
<!-- bundle&#45;&gt;compileJava -->
<g id="edge18" class="edge"><title>bundle&#45;&gt;compileJava</title>
<path fill="none" stroke="red" d="M888.979,-836.239C883.595,-864.22 877.99,-919.188 909,-947 930.054,-965.883 1392.02,-943.835 1418,-955 1429.44,-959.914 1439.51,-969.075 1447.36,-978.086"/>
<polygon fill="red" stroke="red" points="1444.65,-980.301 1453.67,-985.857 1450.09,-975.888 1444.65,-980.301"/>
</g>
<!-- bundle&#45;&gt;jar -->
<g id="edge19" class="edge"><title>bundle&#45;&gt;jar</title>
<path fill="none" stroke="black" stroke-dasharray="5,2" d="M920.148,-818C1130.41,-818 1340.66,-818 1550.92,-818"/>
<polygon fill="black" stroke="black" points="1550.93,-821.5 1560.93,-818 1550.93,-814.5 1550.93,-821.5"/>
</g>
<!-- bundle&#45;&gt;test -->
<g id="edge21" class="edge"><title>bundle&#45;&gt;test</title>
<path fill="none" stroke="black" d="M920.125,-816.364C989.944,-814.024 1180.82,-803.15 1330,-753 1382.42,-735.379 1386.23,-709.526 1439,-693 1512.37,-670.022 1742.97,-655.097 1833.75,-649.976"/>
<polygon fill="black" stroke="black" points="1834.07,-653.464 1843.86,-649.414 1833.68,-646.475 1834.07,-653.464"/>
</g>
<!-- bundleTest -->
<g id="node16" class="node"><title>bundleTest</title>
<polygon fill="cyan" stroke="black" points="919.25,-737 842.75,-737 842.75,-701 919.25,-701 919.25,-737"/>
<text text-anchor="middle" x="881" y="-715.3" font-family="Times,serif" font-size="14.00">bundleTest</text>
</g>
<!-- bundle&#45;&gt;bundleTest -->
<g id="edge20" class="edge"><title>bundle&#45;&gt;bundleTest</title>
<path fill="none" stroke="black" d="M890.855,-799.658C889.063,-785.175 886.476,-764.263 884.402,-747.499"/>
<polygon fill="black" stroke="black" points="887.828,-746.686 883.127,-737.192 880.881,-747.546 887.828,-746.686"/>
</g>
<!-- release -->
<g id="node17" class="node"><title>release</title>
<polygon fill="cyan" stroke="black" points="1008,-737 954,-737 954,-701 1008,-701 1008,-737"/>
<text text-anchor="middle" x="981" y="-715.3" font-family="Times,serif" font-size="14.00">release</text>
</g>
<!-- bundle&#45;&gt;release -->
<g id="edge22" class="edge"><title>bundle&#45;&gt;release</title>
<path fill="none" stroke="black" d="M908.733,-799.658C922.623,-784.347 943.031,-761.852 958.621,-744.668"/>
<polygon fill="black" stroke="black" points="961.277,-746.95 965.404,-737.192 956.092,-742.246 961.277,-746.95"/>
</g>
<!-- export -->
<g id="node21" class="node"><title>export</title>
<polygon fill="cyan" stroke="black" points="1136,-737 1082,-737 1082,-701 1136,-701 1136,-737"/>
<text text-anchor="middle" x="1109" y="-715.3" font-family="Times,serif" font-size="14.00">export</text>
</g>
<!-- bundle&#45;&gt;export -->
<g id="edge23" class="edge"><title>bundle&#45;&gt;export</title>
<path fill="none" stroke="black" d="M920.082,-810.435C955.968,-801.032 1020.51,-781.642 1070,-753 1074.58,-750.347 1079.15,-747.136 1083.46,-743.772"/>
<polygon fill="black" stroke="black" points="1085.9,-746.296 1091.37,-737.219 1081.43,-740.906 1085.9,-746.296"/>
</g>
<!-- p2Entry -->
<g id="node35" class="node"><title>p2Entry</title>
<polygon fill="none" stroke="black" points="729,-737 669,-737 669,-701 729,-701 729,-737"/>
<text text-anchor="middle" x="699" y="-715.3" font-family="Times,serif" font-size="14.00">p2Entry</text>
</g>
<!-- bundle&#45;&gt;p2Entry -->
<g id="edge40" class="edge"><title>bundle&#45;&gt;p2Entry</title>
<path fill="none" stroke="black" d="M865.616,-803.308C832.397,-786.699 776.156,-758.578 738.313,-739.657"/>
<polygon fill="black" stroke="black" points="739.623,-736.399 729.114,-735.057 736.493,-742.66 739.623,-736.399"/>
</g>
<!-- bundleTest&#45;&gt;check -->
<g id="edge24" class="edge"><title>bundleTest&#45;&gt;check</title>
<path fill="none" stroke="black" d="M882.122,-700.694C885.01,-672.096 895.313,-615.594 932,-590 969.523,-563.823 1662.98,-564.33 1833.41,-564.853"/>
<polygon fill="black" stroke="black" points="1833.63,-568.353 1843.64,-564.886 1833.65,-561.353 1833.63,-568.353"/>
</g>
<!-- releaseNeeded -->
<g id="node18" class="node"><title>releaseNeeded</title>
<polygon fill="cyan" stroke="black" points="1039.25,-665 944.75,-665 944.75,-629 1039.25,-629 1039.25,-665"/>
<text text-anchor="middle" x="992" y="-643.3" font-family="Times,serif" font-size="14.00">releaseNeeded</text>
</g>
<!-- release&#45;&gt;releaseNeeded -->
<g id="edge25" class="edge"><title>release&#45;&gt;releaseNeeded</title>
<path fill="none" stroke="black" d="M983.719,-700.697C984.931,-692.983 986.388,-683.712 987.739,-675.112"/>
<polygon fill="black" stroke="black" points="991.217,-675.526 989.312,-665.104 984.302,-674.44 991.217,-675.526"/>
</g>
<!-- releaseNeeded&#45;&gt;releaseNeeded -->
<g id="edge26" class="edge"><title>releaseNeeded&#45;&gt;releaseNeeded</title>
<path fill="none" stroke="red" d="M1039.33,-660.101C1049.57,-658.82 1057,-654.453 1057,-647 1057,-642.225 1053.95,-638.717 1049.07,-636.476"/>
<polygon fill="red" stroke="red" points="1049.89,-633.073 1039.33,-633.899 1048.1,-639.84 1049.89,-633.073"/>
</g>
<!-- cleanBnd -->
<g id="node19" class="node"><title>cleanBnd</title>
<polygon fill="cyan" stroke="black" points="1318,-737 1264,-737 1264,-701 1318,-701 1318,-737"/>
<text text-anchor="middle" x="1291" y="-715.3" font-family="Times,serif" font-size="14.00">clean</text>
</g>
<!-- bndproperties -->
<g id="node20" class="node"><title>bndproperties</title>
<polygon fill="cyan" stroke="black" points="1245.25,-737 1154.75,-737 1154.75,-701 1245.25,-701 1245.25,-737"/>
<text text-anchor="middle" x="1200" y="-715.3" font-family="Times,serif" font-size="14.00">bndproperties</text>
</g>
<!-- checkClassCycle&#45;&gt;bundle -->
<g id="edge16" class="edge"><title>checkClassCycle&#45;&gt;bundle</title>
<path fill="none" stroke="black" d="M955.483,-871.697C945.131,-862.965 932.414,-852.24 921.161,-842.75"/>
<polygon fill="black" stroke="black" points="923.182,-839.876 913.281,-836.104 918.669,-845.227 923.182,-839.876"/>
</g>
<!-- wrapper -->
<g id="node23" class="node"><title>wrapper</title>
<polygon fill="cyan" stroke="black" points="2111.25,-1022 2050.75,-1022 2050.75,-986 2111.25,-986 2111.25,-1022"/>
<text text-anchor="middle" x="2081" y="-1000.3" font-family="Times,serif" font-size="14.00">wrapper</text>
</g>
<!-- findbugstest -->
<g id="node24" class="node"><title>findbugstest</title>
<polygon fill="cyan" stroke="black" points="2257.25,-665 2174.75,-665 2174.75,-629 2257.25,-629 2257.25,-665"/>
<text text-anchor="middle" x="2216" y="-643.3" font-family="Times,serif" font-size="14.00">findbugstest</text>
</g>
<!-- findbugstest&#45;&gt;check -->
<g id="edge32" class="edge"><title>findbugstest&#45;&gt;check</title>
<path fill="none" stroke="green" d="M2204.43,-628.831C2194.57,-615.734 2179.12,-598.536 2161,-590 2117.17,-569.356 1976.31,-565.611 1908.36,-565.033"/>
<polygon fill="green" stroke="green" points="1908.13,-561.531 1898.1,-564.965 1908.08,-568.531 1908.13,-561.531"/>
</g>
<!-- findbugsTest&#45;&gt;findbugstest -->
<g id="edge30" class="edge"><title>findbugsTest&#45;&gt;findbugstest</title>
<path fill="none" stroke="black" d="M2216.75,-700.697C2216.64,-692.983 2216.51,-683.712 2216.39,-675.112"/>
<polygon fill="black" stroke="black" points="2219.89,-675.053 2216.24,-665.104 2212.89,-675.153 2219.89,-675.053"/>
</g>
<!-- findbugs -->
<g id="node26" class="node"><title>findbugs</title>
<polygon fill="cyan" stroke="black" points="2126,-665 2062,-665 2062,-629 2126,-629 2126,-665"/>
<text text-anchor="middle" x="2094" y="-643.3" font-family="Times,serif" font-size="14.00">findbugs</text>
</g>
<!-- findbugs&#45;&gt;check -->
<g id="edge31" class="edge"><title>findbugs&#45;&gt;check</title>
<path fill="none" stroke="green" d="M2061.57,-634.222C2020.67,-619.364 1950.51,-593.881 1907.69,-578.326"/>
<polygon fill="green" stroke="green" points="1908.8,-575.006 1898.2,-574.881 1906.41,-581.585 1908.8,-575.006"/>
</g>
<!-- findbugsMain&#45;&gt;findbugs -->
<g id="edge29" class="edge"><title>findbugsMain&#45;&gt;findbugs</title>
<path fill="none" stroke="black" d="M2100.02,-700.697C2099.14,-692.983 2098.08,-683.712 2097.1,-675.112"/>
<polygon fill="black" stroke="black" points="2100.57,-674.642 2095.95,-665.104 2093.61,-675.437 2100.57,-674.642"/>
</g>
<!-- indexOBR -->
<g id="node28" class="node"><title>indexOBR</title>
<polygon fill="cyan" stroke="black" points="2514,-1022 2440,-1022 2440,-986 2514,-986 2514,-1022"/>
<text text-anchor="middle" x="2477" y="-1000.3" font-family="Times,serif" font-size="14.00">indexOBR</text>
</g>
<!-- index -->
<g id="node30" class="node"><title>index</title>
<polygon fill="cyan" stroke="black" points="2461,-908 2407,-908 2407,-872 2461,-872 2461,-908"/>
<text text-anchor="middle" x="2434" y="-886.3" font-family="Times,serif" font-size="14.00">index</text>
</g>
<!-- indexOBR&#45;&gt;index -->
<g id="edge33" class="edge"><title>indexOBR&#45;&gt;index</title>
<path fill="none" stroke="black" d="M2470.47,-985.99C2463.49,-967.817 2452.34,-938.769 2444.2,-917.575"/>
<polygon fill="black" stroke="black" points="2447.44,-916.252 2440.59,-908.17 2440.91,-918.761 2447.44,-916.252"/>
</g>
<!-- indexR5 -->
<g id="node29" class="node"><title>indexR5</title>
<polygon fill="cyan" stroke="black" points="2422,-1022 2360,-1022 2360,-986 2422,-986 2422,-1022"/>
<text text-anchor="middle" x="2391" y="-1000.3" font-family="Times,serif" font-size="14.00">indexR5</text>
</g>
<!-- indexR5&#45;&gt;index -->
<g id="edge34" class="edge"><title>indexR5&#45;&gt;index</title>
<path fill="none" stroke="black" d="M2397.53,-985.99C2404.51,-967.817 2415.66,-938.769 2423.8,-917.575"/>
<polygon fill="black" stroke="black" points="2427.09,-918.761 2427.41,-908.17 2420.56,-916.252 2427.09,-918.761"/>
</g>
<!-- clean -->
<g id="node31" class="node"><title>clean</title>
<polygon fill="lightcyan" stroke="black" points="2274,-1022 2220,-1022 2220,-986 2274,-986 2274,-1022"/>
<text text-anchor="middle" x="2247" y="-1000.3" font-family="Times,serif" font-size="14.00">clean</text>
</g>
<!-- cleanNeeded -->
<g id="node32" class="node"><title>cleanNeeded</title>
<polygon fill="cyan" stroke="black" points="2234,-908 2148,-908 2148,-872 2234,-872 2234,-908"/>
<text text-anchor="middle" x="2191" y="-886.3" font-family="Times,serif" font-size="14.00">cleanNeeded</text>
</g>
<!-- clean&#45;&gt;cleanNeeded -->
<g id="edge35" class="edge"><title>clean&#45;&gt;cleanNeeded</title>
<path fill="none" stroke="blue" d="M2238.49,-985.99C2229.37,-967.734 2214.75,-938.506 2204.14,-917.287"/>
<polygon fill="blue" stroke="blue" points="2207.19,-915.549 2199.59,-908.17 2200.93,-918.68 2207.19,-915.549"/>
</g>
<!-- distclean -->
<g id="node33" class="node"><title>distclean</title>
<polygon fill="cyan" stroke="black" points="2335.25,-908 2270.75,-908 2270.75,-872 2335.25,-872 2335.25,-908"/>
<text text-anchor="middle" x="2303" y="-886.3" font-family="Times,serif" font-size="14.00">distclean</text>
</g>
<!-- clean&#45;&gt;distclean -->
<g id="edge37" class="edge"><title>clean&#45;&gt;distclean</title>
<path fill="none" stroke="blue" d="M2255.51,-985.99C2264.63,-967.734 2279.25,-938.506 2289.86,-917.287"/>
<polygon fill="blue" stroke="blue" points="2293.07,-918.68 2294.41,-908.17 2286.81,-915.549 2293.07,-918.68"/>
</g>
<!-- cleanNeeded&#45;&gt;cleanNeeded -->
<g id="edge36" class="edge"><title>cleanNeeded&#45;&gt;cleanNeeded</title>
<path fill="none" stroke="red" d="M2234.04,-903.262C2244.35,-902.225 2252,-897.805 2252,-890 2252,-885 2248.86,-881.389 2243.89,-879.167"/>
<polygon fill="red" stroke="red" points="2244.58,-875.732 2234.04,-876.738 2242.91,-882.529 2244.58,-875.732"/>
</g>
<!-- distcleanNeeded -->
<g id="node34" class="node"><title>distcleanNeeded</title>
<polygon fill="cyan" stroke="black" points="2318,-836 2212,-836 2212,-800 2318,-800 2318,-836"/>
<text text-anchor="middle" x="2265" y="-814.3" font-family="Times,serif" font-size="14.00">distcleanNeeded</text>
</g>
<!-- distclean&#45;&gt;distcleanNeeded -->
<g id="edge38" class="edge"><title>distclean&#45;&gt;distcleanNeeded</title>
<path fill="none" stroke="black" d="M2293.61,-871.697C2289.24,-863.644 2283.94,-853.894 2279.1,-844.982"/>
<polygon fill="black" stroke="black" points="2282.13,-843.223 2274.29,-836.104 2275.98,-846.563 2282.13,-843.223"/>
</g>
<!-- distcleanNeeded&#45;&gt;distcleanNeeded -->
<g id="edge39" class="edge"><title>distcleanNeeded&#45;&gt;distcleanNeeded</title>
<path fill="none" stroke="red" d="M2318.26,-830.899C2328.63,-829.401 2336,-825.102 2336,-818 2336,-813.451 2332.98,-810.051 2328.08,-807.801"/>
<polygon fill="red" stroke="red" points="2328.83,-804.378 2318.26,-805.101 2326.97,-811.128 2328.83,-804.378"/>
</g>
<!-- p2FeaturesTree -->
<g id="node36" class="node"><title>p2FeaturesTree</title>
<polygon fill="none" stroke="black" points="465.25,-665 364.75,-665 364.75,-629 465.25,-629 465.25,-665"/>
<text text-anchor="middle" x="415" y="-643.3" font-family="Times,serif" font-size="14.00">p2FeaturesTree</text>
</g>
<!-- p2Entry&#45;&gt;p2FeaturesTree -->
<g id="edge41" class="edge"><title>p2Entry&#45;&gt;p2FeaturesTree</title>
<path fill="none" stroke="black" d="M668.876,-710.575C622.993,-699.266 534.672,-677.497 475.275,-662.856"/>
<polygon fill="black" stroke="black" points="475.817,-659.385 465.27,-660.391 474.142,-666.182 475.817,-659.385"/>
</g>
<!-- p2PluginsMain -->
<g id="node43" class="node"><title>p2PluginsMain</title>
<polygon fill="none" stroke="black" points="810,-665 710,-665 710,-629 810,-629 810,-665"/>
<text text-anchor="middle" x="760" y="-643.3" font-family="Times,serif" font-size="14.00">p2PluginsMain</text>
</g>
<!-- p2Entry&#45;&gt;p2PluginsMain -->
<g id="edge52" class="edge"><title>p2Entry&#45;&gt;p2PluginsMain</title>
<path fill="none" stroke="black" d="M714.079,-700.697C721.392,-692.305 730.31,-682.07 738.335,-672.861"/>
<polygon fill="black" stroke="black" points="741.164,-674.943 745.095,-665.104 735.886,-670.344 741.164,-674.943"/>
</g>
<!-- p2PluginsExtras -->
<g id="node44" class="node"><title>p2PluginsExtras</title>
<polygon fill="none" stroke="black" points="691.25,-665 586.75,-665 586.75,-629 691.25,-629 691.25,-665"/>
<text text-anchor="middle" x="639" y="-643.3" font-family="Times,serif" font-size="14.00">p2PluginsExtras</text>
</g>
<!-- p2Entry&#45;&gt;p2PluginsExtras -->
<g id="edge53" class="edge"><title>p2Entry&#45;&gt;p2PluginsExtras</title>
<path fill="none" stroke="black" d="M684.169,-700.697C676.975,-692.305 668.203,-682.07 660.31,-672.861"/>
<polygon fill="black" stroke="black" points="662.826,-670.419 653.661,-665.104 657.511,-674.975 662.826,-670.419"/>
</g>
<!-- p2FeatureMain -->
<g id="node37" class="node"><title>p2FeatureMain</title>
<polygon fill="none" stroke="black" points="116,-582 16,-582 16,-546 116,-546 116,-582"/>
<text text-anchor="middle" x="66" y="-560.3" font-family="Times,serif" font-size="14.00">p2FeatureMain</text>
</g>
<!-- p2FeaturesTree&#45;&gt;p2FeatureMain -->
<g id="edge42" class="edge"><title>p2FeaturesTree&#45;&gt;p2FeatureMain</title>
<path fill="none" stroke="black" d="M364.738,-635.916C308.767,-624.461 215.427,-604.692 125.92,-582.159"/>
<polygon fill="black" stroke="black" points="126.706,-578.747 116.153,-579.685 124.988,-585.533 126.706,-578.747"/>
</g>
<!-- p2FeatureJarViewer -->
<g id="node38" class="node"><title>p2FeatureJarViewer</title>
<polygon fill="none" stroke="black" points="260,-582 134,-582 134,-546 260,-546 260,-582"/>
<text text-anchor="middle" x="197" y="-560.3" font-family="Times,serif" font-size="14.00">p2FeatureJarViewer</text>
</g>
<!-- p2FeaturesTree&#45;&gt;p2FeatureJarViewer -->
<g id="edge43" class="edge"><title>p2FeaturesTree&#45;&gt;p2FeatureJarViewer</title>
<path fill="none" stroke="black" d="M369.034,-628.921C334.977,-616.267 288.41,-598.964 252.313,-585.552"/>
<polygon fill="black" stroke="black" points="253.496,-582.258 242.903,-582.056 251.058,-588.82 253.496,-582.258"/>
</g>
<!-- p2FeatureAcePlugin -->
<g id="node39" class="node"><title>p2FeatureAcePlugin</title>
<polygon fill="none" stroke="black" points="406,-582 278,-582 278,-546 406,-546 406,-582"/>
<text text-anchor="middle" x="342" y="-560.3" font-family="Times,serif" font-size="14.00">p2FeatureAcePlugin</text>
</g>
<!-- p2FeaturesTree&#45;&gt;p2FeatureAcePlugin -->
<g id="edge44" class="edge"><title>p2FeaturesTree&#45;&gt;p2FeatureAcePlugin</title>
<path fill="none" stroke="black" d="M399.519,-628.822C389.259,-617.439 375.64,-602.326 364.229,-589.665"/>
<polygon fill="black" stroke="black" points="366.754,-587.238 357.459,-582.153 361.554,-591.925 366.754,-587.238"/>
</g>
<!-- p2FeatureDMPlugin -->
<g id="node40" class="node"><title>p2FeatureDMPlugin</title>
<polygon fill="none" stroke="black" points="552,-582 424,-582 424,-546 552,-546 552,-582"/>
<text text-anchor="middle" x="488" y="-560.3" font-family="Times,serif" font-size="14.00">p2FeatureDMPlugin</text>
</g>
<!-- p2FeaturesTree&#45;&gt;p2FeatureDMPlugin -->
<g id="edge45" class="edge"><title>p2FeaturesTree&#45;&gt;p2FeatureDMPlugin</title>
<path fill="none" stroke="black" d="M430.481,-628.822C440.741,-617.439 454.36,-602.326 465.771,-589.665"/>
<polygon fill="black" stroke="black" points="468.446,-591.925 472.541,-582.153 463.246,-587.238 468.446,-591.925"/>
</g>
<!-- p2FeatureAmdatuPlugin -->
<g id="node41" class="node"><title>p2FeatureAmdatuPlugin</title>
<polygon fill="none" stroke="black" points="720,-582 570,-582 570,-546 720,-546 720,-582"/>
<text text-anchor="middle" x="645" y="-560.3" font-family="Times,serif" font-size="14.00">p2FeatureAmdatuPlugin</text>
</g>
<!-- p2FeaturesTree&#45;&gt;p2FeatureAmdatuPlugin -->
<g id="edge46" class="edge"><title>p2FeaturesTree&#45;&gt;p2FeatureAmdatuPlugin</title>
<path fill="none" stroke="black" d="M463.496,-628.921C499.581,-616.213 548.977,-598.817 587.128,-585.381"/>
<polygon fill="black" stroke="black" points="588.301,-588.679 596.57,-582.056 585.975,-582.076 588.301,-588.679"/>
</g>
<!-- p2Features -->
<g id="node42" class="node"><title>p2Features</title>
<polygon fill="none" stroke="black" points="453,-510 377,-510 377,-474 453,-474 453,-510"/>
<text text-anchor="middle" x="415" y="-488.3" font-family="Times,serif" font-size="14.00">p2Features</text>
</g>
<!-- p2FeatureMain&#45;&gt;p2Features -->
<g id="edge47" class="edge"><title>p2FeatureMain&#45;&gt;p2Features</title>
<path fill="none" stroke="black" d="M102.317,-545.962C109.705,-542.968 117.51,-540.132 125,-538 208.208,-514.31 308.623,-502.249 366.809,-496.812"/>
<polygon fill="black" stroke="black" points="367.177,-500.293 376.82,-495.903 366.545,-493.322 367.177,-500.293"/>
</g>
<!-- p2FeatureJarViewer&#45;&gt;p2Features -->
<g id="edge48" class="edge"><title>p2FeatureJarViewer&#45;&gt;p2Features</title>
<path fill="none" stroke="black" d="M245.333,-545.956C253.227,-543.248 261.33,-540.513 269,-538 301.581,-527.326 338.482,-515.959 367.035,-507.319"/>
<polygon fill="black" stroke="black" points="368.203,-510.623 376.765,-504.383 366.18,-503.921 368.203,-510.623"/>
</g>
<!-- p2FeatureAcePlugin&#45;&gt;p2Features -->
<g id="edge49" class="edge"><title>p2FeatureAcePlugin&#45;&gt;p2Features</title>
<path fill="none" stroke="black" d="M360.045,-545.697C369.062,-537.05 380.118,-526.449 389.943,-517.027"/>
<polygon fill="black" stroke="black" points="392.367,-519.552 397.163,-510.104 387.522,-514.499 392.367,-519.552"/>
</g>
<!-- p2FeatureDMPlugin&#45;&gt;p2Features -->
<g id="edge50" class="edge"><title>p2FeatureDMPlugin&#45;&gt;p2Features</title>
<path fill="none" stroke="black" d="M469.955,-545.697C460.938,-537.05 449.882,-526.449 440.057,-517.027"/>
<polygon fill="black" stroke="black" points="442.478,-514.499 432.837,-510.104 437.633,-519.552 442.478,-514.499"/>
</g>
<!-- p2FeatureAmdatuPlugin&#45;&gt;p2Features -->
<g id="edge51" class="edge"><title>p2FeatureAmdatuPlugin&#45;&gt;p2Features</title>
<path fill="none" stroke="black" d="M589.03,-545.966C550.501,-534.239 499.843,-518.822 463.125,-507.647"/>
<polygon fill="black" stroke="black" points="463.746,-504.177 453.16,-504.614 461.707,-510.874 463.746,-504.177"/>
</g>
<!-- p2 -->
<g id="node46" class="node"><title>p2</title>
<polygon fill="cyan" stroke="black" points="564,-435 510,-435 510,-399 564,-399 564,-435"/>
<text text-anchor="middle" x="537" y="-413.3" font-family="Times,serif" font-size="14.00">p2</text>
</g>
<!-- p2Features&#45;&gt;p2 -->
<g id="edge56" class="edge"><title>p2Features&#45;&gt;p2</title>
<path fill="none" stroke="black" d="M443.604,-473.885C460.793,-463.6 482.816,-450.421 501.16,-439.445"/>
<polygon fill="black" stroke="black" points="503.048,-442.394 509.832,-434.256 499.454,-436.388 503.048,-442.394"/>
</g>
<!-- p2Plugins -->
<g id="node45" class="node"><title>p2Plugins</title>
<polygon fill="none" stroke="black" points="809.25,-582 738.75,-582 738.75,-546 809.25,-546 809.25,-582"/>
<text text-anchor="middle" x="774" y="-560.3" font-family="Times,serif" font-size="14.00">p2Plugins</text>
</g>
<!-- p2PluginsMain&#45;&gt;p2Plugins -->
<g id="edge54" class="edge"><title>p2PluginsMain&#45;&gt;p2Plugins</title>
<path fill="none" stroke="black" d="M762.969,-628.822C764.807,-618.19 767.206,-604.306 769.298,-592.204"/>
<polygon fill="black" stroke="black" points="772.781,-592.603 771.035,-582.153 765.883,-591.411 772.781,-592.603"/>
</g>
<!-- p2PluginsExtras&#45;&gt;p2Plugins -->
<g id="edge55" class="edge"><title>p2PluginsExtras&#45;&gt;p2Plugins</title>
<path fill="none" stroke="black" d="M653.974,-628.78C665.642,-616.356 682.862,-600.061 701,-590 712.318,-583.722 716.714,-586.068 729,-582 729.099,-581.967 729.198,-581.934 729.298,-581.901"/>
<polygon fill="black" stroke="black" points="730.418,-585.217 738.726,-578.642 728.131,-578.602 730.418,-585.217"/>
</g>
<!-- p2Plugins&#45;&gt;p2 -->
<g id="edge57" class="edge"><title>p2Plugins&#45;&gt;p2</title>
<path fill="none" stroke="black" d="M745.882,-545.797C702.801,-519.439 620.48,-469.074 573.063,-440.064"/>
<polygon fill="black" stroke="black" points="574.706,-436.966 564.35,-434.733 571.053,-442.937 574.706,-436.966"/>
</g>
<!-- indexOBRBuild -->
<g id="node47" class="node"><title>indexOBRBuild</title>
<polygon fill="cyan" stroke="black" points="531,-363 457,-363 457,-327 531,-327 531,-363"/>
<text text-anchor="middle" x="494" y="-341.3" font-family="Times,serif" font-size="14.00">indexOBR</text>
</g>
<!-- p2&#45;&gt;indexOBRBuild -->
<g id="edge58" class="edge"><title>p2&#45;&gt;indexOBRBuild</title>
<path fill="none" stroke="black" d="M526.371,-398.697C521.372,-390.559 515.309,-380.689 509.788,-371.701"/>
<polygon fill="black" stroke="black" points="512.723,-369.793 504.507,-363.104 506.759,-373.457 512.723,-369.793"/>
</g>
<!-- indexR5Build -->
<g id="node48" class="node"><title>indexR5Build</title>
<polygon fill="cyan" stroke="black" points="611,-363 549,-363 549,-327 611,-327 611,-363"/>
<text text-anchor="middle" x="580" y="-341.3" font-family="Times,serif" font-size="14.00">indexR5</text>
</g>
<!-- p2&#45;&gt;indexR5Build -->
<g id="edge59" class="edge"><title>p2&#45;&gt;indexR5Build</title>
<path fill="none" stroke="black" d="M547.629,-398.697C552.628,-390.559 558.691,-380.689 564.212,-371.701"/>
<polygon fill="black" stroke="black" points="567.241,-373.457 569.493,-363.104 561.277,-369.793 567.241,-373.457"/>
</g>
<!-- indexBuild -->
<g id="node49" class="node"><title>indexBuild</title>
<polygon fill="cyan" stroke="black" points="564,-291 510,-291 510,-255 564,-255 564,-291"/>
<text text-anchor="middle" x="537" y="-269.3" font-family="Times,serif" font-size="14.00">index</text>
</g>
<!-- indexOBRBuild&#45;&gt;indexBuild -->
<g id="edge60" class="edge"><title>indexOBRBuild&#45;&gt;indexBuild</title>
<path fill="none" stroke="black" d="M504.629,-326.697C509.628,-318.559 515.691,-308.689 521.212,-299.701"/>
<polygon fill="black" stroke="black" points="524.241,-301.457 526.493,-291.104 518.277,-297.793 524.241,-301.457"/>
</g>
<!-- indexR5Build&#45;&gt;indexBuild -->
<g id="edge61" class="edge"><title>indexR5Build&#45;&gt;indexBuild</title>
<path fill="none" stroke="black" d="M569.371,-326.697C564.372,-318.559 558.309,-308.689 552.788,-299.701"/>
<polygon fill="black" stroke="black" points="555.723,-297.793 547.507,-291.104 549.759,-301.457 555.723,-297.793"/>
</g>
<!-- distZipMain -->
<g id="node50" class="node"><title>distZipMain</title>
<polygon fill="none" stroke="black" points="495,-147 411,-147 411,-111 495,-111 495,-147"/>
<text text-anchor="middle" x="453" y="-125.3" font-family="Times,serif" font-size="14.00">distZipMain</text>
</g>
<!-- indexBuild&#45;&gt;distZipMain -->
<g id="edge62" class="edge"><title>indexBuild&#45;&gt;distZipMain</title>
<path fill="none" stroke="black" d="M509.9,-259.806C493.488,-250.929 473.715,-237.264 463,-219 452.082,-200.39 450.062,-175.805 450.502,-157.191"/>
<polygon fill="black" stroke="black" points="454.007,-157.169 450.996,-147.011 447.015,-156.83 454.007,-157.169"/>
</g>
<!-- distCompositeExtras -->
<g id="node51" class="node"><title>distCompositeExtras</title>
<polygon fill="none" stroke="black" points="602,-219 472,-219 472,-183 602,-183 602,-219"/>
<text text-anchor="middle" x="537" y="-197.3" font-family="Times,serif" font-size="14.00">distCompositeExtras</text>
</g>
<!-- indexBuild&#45;&gt;distCompositeExtras -->
<g id="edge63" class="edge"><title>indexBuild&#45;&gt;distCompositeExtras</title>
<path fill="none" stroke="black" d="M537,-254.697C537,-246.983 537,-237.712 537,-229.112"/>
<polygon fill="black" stroke="black" points="540.5,-229.104 537,-219.104 533.5,-229.104 540.5,-229.104"/>
</g>
<!-- distZipExtras -->
<g id="node52" class="node"><title>distZipExtras</title>
<polygon fill="none" stroke="black" points="602.25,-147 513.75,-147 513.75,-111 602.25,-111 602.25,-147"/>
<text text-anchor="middle" x="558" y="-125.3" font-family="Times,serif" font-size="14.00">distZipExtras</text>
</g>
<!-- indexBuild&#45;&gt;distZipExtras -->
<g id="edge64" class="edge"><title>indexBuild&#45;&gt;distZipExtras</title>
<path fill="none" stroke="black" d="M564.061,-260.582C580.907,-251.879 601.178,-238.116 611,-219 618.312,-204.769 617.123,-197.782 611,-183 606.455,-172.028 598.415,-162.143 589.949,-153.964"/>
<polygon fill="black" stroke="black" points="592.249,-151.326 582.477,-147.232 587.563,-156.526 592.249,-151.326"/>
</g>
<!-- dist -->
<g id="node53" class="node"><title>dist</title>
<polygon fill="cyan" stroke="black" points="532,-75 478,-75 478,-39 532,-39 532,-75"/>
<text text-anchor="middle" x="505" y="-53.3" font-family="Times,serif" font-size="14.00">dist</text>
</g>
<!-- distZipMain&#45;&gt;dist -->
<g id="edge66" class="edge"><title>distZipMain&#45;&gt;dist</title>
<path fill="none" stroke="black" d="M465.854,-110.697C472.025,-102.389 479.537,-92.2771 486.324,-83.1407"/>
<polygon fill="black" stroke="black" points="489.14,-85.2189 492.294,-75.1043 483.521,-81.0446 489.14,-85.2189"/>
</g>
<!-- distCompositeExtras&#45;&gt;distZipExtras -->
<g id="edge65" class="edge"><title>distCompositeExtras&#45;&gt;distZipExtras</title>
<path fill="none" stroke="black" d="M542.191,-182.697C544.531,-174.898 547.347,-165.509 549.951,-156.829"/>
<polygon fill="black" stroke="black" points="553.348,-157.688 552.869,-147.104 546.643,-155.677 553.348,-157.688"/>
</g>
<!-- distZipExtras&#45;&gt;dist -->
<g id="edge67" class="edge"><title>distZipExtras&#45;&gt;dist</title>
<path fill="none" stroke="black" d="M544.899,-110.697C538.609,-102.389 530.953,-92.2771 524.035,-83.1407"/>
<polygon fill="black" stroke="black" points="526.777,-80.9642 517.95,-75.1043 521.196,-85.1897 526.777,-80.9642"/>
</g>
</g>
</svg>
